<?xml version="1.0" ?><svg height="100" id="svg2" version="1.1" viewBox="0 0 99.999995 99.999995" width="100" xmlns="http://www.w3.org/2000/svg" xmlns:cc="http://creativecommons.org/ns#" xmlns:dc="http://purl.org/dc/elements/1.1/" xmlns:inkscape="http://www.inkscape.org/namespaces/inkscape" xmlns:rdf="http://www.w3.org/1999/02/22-rdf-syntax-ns#" xmlns:sodipodi="http://sodipodi.sourceforge.net/DTD/sodipodi-0.dtd" xmlns:svg="http://www.w3.org/2000/svg"><defs id="defs4"><filter id="filter4510" style="color-interpolation-filters:sRGB"><feFlood flood-color="rgb(0,0,0)" flood-opacity="0.470588" id="feFlood4512" result="flood"/><feComposite id="feComposite4514" in="flood" in2="SourceGraphic" operator="in" result="composite1"/><feGaussianBlur id="feGaussianBlur4516" in="composite1" result="blur" stdDeviation="5"/><feOffset dx="0" dy="4.7" id="feOffset4518" result="offset"/><feComposite id="feComposite4520" in="SourceGraphic" in2="offset" operator="over" result="composite2"/></filter><filter id="filter5064" style="color-interpolation-filters:sRGB"><feFlood flood-color="rgb(206,242,245)" flood-opacity="0.835294" id="feFlood5066" result="flood"/><feComposite id="feComposite5068" in="flood" in2="SourceGraphic" operator="out" result="composite1"/><feGaussianBlur id="feGaussianBlur5070" in="composite1" result="blur" stdDeviation="5.9"/><feOffset dx="0" dy="-8.1" id="feOffset5072" result="offset"/><feComposite id="feComposite5074" in="offset" in2="SourceGraphic" operator="atop" result="composite2"/></filter><filter id="filter5364" style="color-interpolation-filters:sRGB"><feFlood flood-color="rgb(0,0,0)" flood-opacity="0.835294" id="feFlood5366" result="flood"/><feComposite id="feComposite5368" in="flood" in2="SourceGraphic" operator="in" result="composite1"/><feGaussianBlur id="feGaussianBlur5370" in="composite1" result="blur" stdDeviation="5"/><feOffset dx="0" dy="4.2" id="feOffset5372" result="offset"/><feComposite id="feComposite5374" in="SourceGraphic" in2="offset" operator="over" result="fbSourceGraphic"/><feColorMatrix id="feColorMatrix5592" in="fbSourceGraphic" result="fbSourceGraphicAlpha" values="0 0 0 -1 0 0 0 0 -1 0 0 0 0 -1 0 0 0 0 1 0"/><feFlood flood-color="rgb(254,255,189)" flood-opacity="1" id="feFlood5594" in="fbSourceGraphic" result="flood"/><feComposite id="feComposite5596" in="flood" in2="fbSourceGraphic" operator="out" result="composite1"/><feGaussianBlur id="feGaussianBlur5598" in="composite1" result="blur" stdDeviation="7.6"/><feOffset dx="0" dy="-8.1" id="feOffset5600" result="offset"/><feComposite id="feComposite5602" in="offset" in2="fbSourceGraphic" operator="atop" result="composite2"/></filter><filter id="filter4400" style="color-interpolation-filters:sRGB"><feFlood flood-color="rgb(0,0,0)" flood-opacity="0.470588" id="feFlood4402" result="flood"/><feComposite id="feComposite4404" in="flood" in2="SourceGraphic" operator="in" result="composite1"/><feGaussianBlur id="feGaussianBlur4406" in="composite1" result="blur" stdDeviation="5"/><feOffset dx="0" dy="5" id="feOffset4408" result="offset"/><feComposite id="feComposite4410" in="SourceGraphic" in2="offset" operator="over" result="fbSourceGraphic"/><feColorMatrix id="feColorMatrix4640" in="fbSourceGraphic" result="fbSourceGraphicAlpha" values="0 0 0 -1 0 0 0 0 -1 0 0 0 0 -1 0 0 0 0 1 0"/><feFlood flood-color="rgb(255,253,180)" flood-opacity="1" id="feFlood4642" in="fbSourceGraphic" result="flood"/><feComposite id="feComposite4644" in="flood" in2="fbSourceGraphic" operator="out" result="composite1"/><feGaussianBlur id="feGaussianBlur4646" in="composite1" result="blur" stdDeviation="5"/><feOffset dx="0" dy="-5" id="feOffset4648" result="offset"/><feComposite id="feComposite4650" in="offset" in2="fbSourceGraphic" operator="atop" result="composite2"/></filter><filter id="filter4678" style="color-interpolation-filters:sRGB"><feFlood flood-color="rgb(255,253,180)" flood-opacity="1" id="feFlood4680" result="flood"/><feComposite id="feComposite4682" in="flood" in2="SourceGraphic" operator="out" result="composite1"/><feGaussianBlur id="feGaussianBlur4684" in="composite1" result="blur" stdDeviation="5"/><feOffset dx="0" dy="-7" id="feOffset4686" result="offset"/><feComposite id="feComposite4688" in="offset" in2="SourceGraphic" operator="atop" result="composite2"/></filter><filter id="filter5045" style="color-interpolation-filters:sRGB"><feFlood flood-color="rgb(255,250,175)" flood-opacity="1" id="feFlood5047" result="flood"/><feComposite id="feComposite5049" in="flood" in2="SourceGraphic" operator="out" result="composite1"/><feGaussianBlur id="feGaussianBlur5051" in="composite1" result="blur" stdDeviation="5"/><feOffset dx="0" dy="-6" id="feOffset5053" result="offset"/><feComposite id="feComposite5055" in="offset" in2="SourceGraphic" operator="atop" result="composite2"/></filter><filter id="filter4607" style="color-interpolation-filters:sRGB;"><feFlood flood-color="rgb(255,247,180)" flood-opacity="1" id="feFlood4609" result="flood"/><feComposite id="feComposite4611" in="flood" in2="SourceGraphic" operator="out" result="composite1"/><feGaussianBlur id="feGaussianBlur4613" in="composite1" result="blur" stdDeviation="5"/><feOffset dx="0" dy="-6" id="feOffset4615" result="offset"/><feComposite id="feComposite4617" in="offset" in2="SourceGraphic" operator="atop" result="composite2"/></filter><filter id="filter4507" style="color-interpolation-filters:sRGB;"><feFlood flood-color="rgb(255,249,199)" flood-opacity="1" id="feFlood4509" result="flood"/><feComposite id="feComposite4511" in="flood" in2="SourceGraphic" operator="out" result="composite1"/><feGaussianBlur id="feGaussianBlur4513" in="composite1" result="blur" stdDeviation="3"/><feOffset dx="0" dy="-2.60417" id="feOffset4515" result="offset"/><feComposite id="feComposite4517" in="offset" in2="SourceGraphic" operator="atop" result="fbSourceGraphic"/><feColorMatrix id="feColorMatrix4687" in="fbSourceGraphic" result="fbSourceGraphicAlpha" values="0 0 0 -1 0 0 0 0 -1 0 0 0 0 -1 0 0 0 0 1 0"/><feFlood flood-color="rgb(255,244,153)" flood-opacity="1" id="feFlood4689" in="fbSourceGraphic" result="flood"/><feComposite id="feComposite4691" in="flood" in2="fbSourceGraphic" operator="out" result="composite1"/><feGaussianBlur id="feGaussianBlur4693" in="composite1" result="blur" stdDeviation="3.4"/><feOffset dx="0" dy="-3.9" id="feOffset4695" result="offset"/><feComposite id="feComposite4697" in="offset" in2="fbSourceGraphic" operator="atop" result="composite2"/></filter></defs><g id="layer3" style="display:inline" transform="translate(0,-99.999988)"><path d="M 20 0 C 8.9199857 0 0 8.9199857 0 20 L 0 80 C 0 91.080011 8.9199857 100 20 100 L 80 100 C 91.080011 100 100 91.080011 100 80 L 100 20 C 100 8.9199857 91.080011 0 80 0 L 20 0 z M 50 16.853516 A 23.975726 5.2359062 0 0 1 73.976562 22.087891 A 23.975726 5.2359062 0 0 1 50 27.324219 A 23.975726 5.2359062 0 0 1 26.023438 22.087891 A 23.975726 5.2359062 0 0 1 50 16.853516 z M 73.896484 24.085938 L 73.896484 39.876953 A 23.975725 5.5918558 0 0 1 73.976562 40.308594 A 23.975725 5.5918558 0 0 1 73.896484 40.677734 L 73.896484 40.710938 L 73.888672 40.710938 A 23.975725 5.5918558 0 0 1 50 45.900391 A 23.975725 5.5918558 0 0 1 26.023438 40.308594 A 23.975725 5.5918558 0 0 1 26.101562 39.941406 L 26.101562 24.154297 A 23.975728 5.5918564 0 0 0 49.998047 29.310547 A 23.975728 5.5918564 0 0 0 73.896484 24.085938 z M 73.896484 42.648438 L 73.896484 58.439453 A 23.975722 5.5918551 0 0 1 73.976562 58.871094 A 23.975722 5.5918551 0 0 1 73.896484 59.240234 L 73.896484 59.273438 L 73.888672 59.273438 A 23.975722 5.5918551 0 0 1 50 64.462891 A 23.975722 5.5918551 0 0 1 26.023438 58.871094 A 23.975722 5.5918551 0 0 1 26.101562 58.503906 L 26.101562 42.716797 A 23.975725 5.5918557 0 0 0 49.998047 47.873047 A 23.975725 5.5918557 0 0 0 73.896484 42.648438 z M 73.896484 61.333984 L 73.896484 77.123047 A 23.975719 5.5918544 0 0 1 73.976562 77.554688 A 23.975719 5.5918544 0 0 1 73.896484 77.925781 L 73.896484 77.958984 L 73.888672 77.958984 A 23.975719 5.5918544 0 0 1 50 83.146484 A 23.975719 5.5918544 0 0 1 26.023438 77.554688 A 23.975719 5.5918544 0 0 1 26.101562 77.189453 L 26.101562 61.400391 A 23.975722 5.591855 0 0 0 49.998047 66.558594 A 23.975722 5.591855 0 0 0 73.896484 61.333984 z " id="rect4208" style="opacity:1;fill:#000000;fill-opacity:1;fill-rule:nonzero;stroke:none;stroke-width:3.79999995;stroke-linecap:round;stroke-linejoin:round;stroke-miterlimit:4;stroke-dasharray:none;stroke-dashoffset:0;stroke-opacity:1" transform="translate(0,99.999988)"/></g></svg>