<svg id="Isovera_Logo" data-name="Layer 1" xmlns="http://www.w3.org/2000/svg" viewBox="0 0 387.58 94"><defs><style>.cls-1{fill:#fff;}.cls-2{fill:#ffa400;}</style></defs><title>Artboard 1</title><path class="cls-1" d="M2.41,82.85V71.39l4.18-.44V28.72l-4.18-.44V16.8H27.48V28.27l-4.18.44V70.94l4.18.44V82.85Z"/><path class="cls-1" d="M53.45,84.29A106.79,106.79,0,0,1,32.55,82v-15H44.23l.92,4.81c2.46.1,4.92.2,7.37.2,7.07,0,9-1.64,9-5s-1.43-4.2-8.81-7.17l-4.3-1.74c-11-4.2-16.9-8.91-16.9-18.64,0-13,9.22-16.69,24.07-16.69,8.6,0,18,1.23,21.71,2.36V39.33H65.74l-1-4.2c-2.36-.1-5.43-.2-7.27-.2-5.94,0-8.4.72-8.4,4.1,0,3,1.43,4,7.68,6.35l5.12,1.95c12.8,4.92,17.31,9.42,17.31,18.95C79.15,78.35,71,84.29,53.45,84.29Z"/><path class="cls-1" d="M222,38.1,208.35,82.85H183.15L169.53,38.1l-4.92-.72V24.27h19.66l8.09,31.65c1.33,5.43,2.46,11.06,3.38,15.88h.2c1-4.81,2.15-10.45,3.48-15.88l8-31.65h19.46V37.38Z"/><path class="cls-1" d="M245.72,58.48v.82c0,7.48,1,11.47,13.62,11.47,5.94,0,16.18-.41,21.92-1v12a99.14,99.14,0,0,1-22.74,2.56C237,84.29,228,76.61,228,56.53V51.21c0-19.46,10.34-28.37,28.16-28.37C278,22.84,284,37,284,52.43v6Zm20.89-10.65c0-6.45-1.33-12.08-10.45-12.08-8.91,0-10.34,5.73-10.34,12.08v.82h20.79Z"/><path class="cls-1" d="M309.93,40.66V69.33l4.61.51v13H287.4v-13l4.71-.51V37.79l-4.71-.51v-13h21.3v4.92c5.74-5.33,12.9-6.35,19.25-6.35V38.1A65.85,65.85,0,0,0,309.93,40.66Z"/><path class="cls-1" d="M364,82.85V79.06a34.9,34.9,0,0,1-18.43,5.22c-11,0-17.1-5.53-17.1-16.69V65.24c0-15.57,11.88-17.31,28.47-17.31h5.43V44.75c0-7.07-1.54-8.5-10.75-8.5-2.15,0-4.1.1-6.35.2l-1,4.51H332.77V26.32a78.85,78.85,0,0,1,22.53-3.48c18.23,0,25,5.84,25,21.92V69.33l4.61.51v13Zm-.92-25.71h-5.94c-8.19,0-11.68.92-11.68,7.48V67c0,4.51,2.76,5.73,6.66,5.73a25.37,25.37,0,0,0,11-2.66Z"/><path class="cls-2" d="M148.15,21a44.24,44.24,0,0,0-10.94-6.55c-5-2.17-9.78-2.37-14.5-4.8-3.6-1.85-12.25-9.35-11.22-8.47-.36,1.1-3.68,11.73-2.17,21S115,37.71,123.59,42,140.7,46,141.84,52.28a27.86,27.86,0,0,1,.51,4.58,15.12,15.12,0,0,1,2.19,1.36c.64.48-.06,2.86-1.08,5.29s-2.23,4.57-3,4.37A15.06,15.06,0,0,1,138,67l-.29.31a18.07,18.07,0,0,1-3.91,3,25.15,25.15,0,0,1,.61,2.69c.1.78-2,1.74-4.5,2.53h0l-.05,0-.05,0h0c-2.47.78-4.76,1.23-5.13.54a29,29,0,0,1-1.18-2.87,19.2,19.2,0,0,1-4.9-.51A17.08,17.08,0,0,1,117,75.28c-.47.62-2.75-.3-5.06-1.57s-4.34-2.71-4.13-3.48a18.27,18.27,0,0,1,1.07-2.9,23.6,23.6,0,0,1-3.27-3.82,24.5,24.5,0,0,1-2.85.63c-.75.08-1.74-2.19-2.57-4.8h0v-.07h0c-.83-2.61-1.34-5-.68-5.4A22.63,22.63,0,0,1,102,52.8a21.78,21.78,0,0,1,.31-5.31A17.77,17.77,0,0,1,100,45.66c-.58-.54.36-2.84,1.63-5.15s2.7-4.3,3.43-4a13.79,13.79,0,0,1,2.17,1l.17-.21A19.3,19.3,0,0,1,110.82,34s-3.38-4.74-4-9.59a66.61,66.61,0,0,1-.45-9.78s-.54.49-2.29,1.8c-1.92,1.44-3.37,2.29-6.24,4.65S79.55,36,83.12,58.66a38.66,38.66,0,0,0,8.35,18.65,41.18,41.18,0,0,0,38,14.26c21.12-3.34,37-21.57,33.34-44.79A40.62,40.62,0,0,0,148.15,21Z"/></svg>